<svg style="background-color:rgb(15 23 42)" width="33.96" height="27.024" viewBox="0 0 33.96 27.024" xmlns="http://www.w3.org/2000/svg"><g id="svgGroup" stroke-linecap="round" fill-rule="evenodd" font-size="9pt" stroke="rgb(226, 232, 240)" stroke-width="0.25mm" fill="rgb(226, 232, 240)" style="stroke:rgb(226, 232, 240);stroke-width:0.25mm;fill:rgb(226, 232, 240)"><path d="M 0.216 5.28 L 0 5.136 Q 1.521 3.245 4.223 1.817 A 20.291 20.291 0 0 1 4.8 1.524 A 18.848 18.848 0 0 1 6.859 0.656 Q 7.917 0.287 8.876 0.126 A 8.624 8.624 0 0 1 10.308 0 A 12.367 12.367 0 0 1 11.842 0.089 Q 13.203 0.26 14.172 0.756 A 5.508 5.508 0 0 1 15.266 1.482 A 4.107 4.107 0 0 1 16.272 2.76 L 16.392 2.76 A 11.283 11.283 0 0 1 17.982 2.862 Q 19.833 3.127 20.575 4.08 A 2.5 2.5 0 0 1 21.072 5.664 A 4.602 4.602 0 0 1 20.87 6.946 Q 20.523 8.136 19.579 9.625 A 19.77 19.77 0 0 1 19.2 10.2 A 38.304 38.304 0 0 1 23.152 6.994 A 31.868 31.868 0 0 1 25.572 5.448 A 19.539 19.539 0 0 1 27.468 4.481 Q 29.525 3.58 31.139 3.576 A 5.802 5.802 0 0 1 31.152 3.576 Q 31.968 3.576 31.968 4.152 A 2.02 2.02 0 0 1 31.662 5.15 Q 30.963 6.368 28.661 7.935 A 27.758 27.758 0 0 1 28.104 8.304 Q 23.928 10.992 17.976 13.128 A 41.587 41.587 0 0 0 17.83 13.18 Q 17.663 13.241 17.57 13.277 A 3.861 3.861 0 0 0 17.52 13.296 A 38.613 38.613 0 0 0 15.762 15.31 Q 13.223 18.451 13.025 20.433 A 3.29 3.29 0 0 0 13.008 20.76 A 3.821 3.821 0 0 0 13.065 21.444 Q 13.2 22.186 13.656 22.608 Q 14.304 23.208 15.384 23.208 A 3.148 3.148 0 0 0 15.507 23.206 Q 15.618 23.202 15.696 23.189 A 0.785 0.785 0 0 0 15.72 23.184 Q 15.672 22.92 15.672 22.344 Q 15.672 20.736 16.308 19.308 Q 16.944 17.88 17.892 16.956 A 8.8 8.8 0 0 1 19.151 15.93 A 7.499 7.499 0 0 1 19.896 15.492 A 5.822 5.822 0 0 1 20.663 15.163 Q 21.281 14.952 21.828 14.952 Q 22.704 14.952 23.196 15.42 A 1.489 1.489 0 0 1 23.592 16.081 Q 23.664 16.319 23.682 16.604 A 3.121 3.121 0 0 1 23.688 16.8 A 4.583 4.583 0 0 1 22.846 19.415 Q 22.385 20.094 21.672 20.734 A 10.095 10.095 0 0 1 21.168 21.156 A 11.908 11.908 0 0 1 18.935 22.56 A 8.87 8.87 0 0 1 15.984 23.4 A 4.228 4.228 0 0 0 16.43 24.764 A 3.722 3.722 0 0 0 17.328 25.86 Q 18.258 26.639 19.819 26.761 A 7.733 7.733 0 0 0 20.424 26.784 A 4.657 4.657 0 0 0 21.368 26.683 A 6.061 6.061 0 0 0 22.056 26.496 L 22.248 26.616 A 2.529 2.529 0 0 1 21.711 26.827 Q 21.161 26.98 20.347 27.014 A 11.638 11.638 0 0 1 19.86 27.024 A 4.472 4.472 0 0 1 18.527 26.833 A 3.678 3.678 0 0 1 17.124 26.028 Q 16.032 25.032 15.768 23.424 Q 15.66 23.446 15.473 23.448 A 3.641 3.641 0 0 1 15.432 23.448 A 4.38 4.38 0 0 1 14.473 23.349 Q 13.782 23.194 13.273 22.797 A 2.762 2.762 0 0 1 13.188 22.728 Q 12.336 22.008 12.336 20.52 A 4.927 4.927 0 0 1 12.566 19.111 Q 13.071 17.429 14.688 15.168 A 39.403 39.403 0 0 1 9.572 19.144 A 34.786 34.786 0 0 1 7.8 20.22 Q 4.224 22.248 1.776 22.248 A 2.477 2.477 0 0 1 1.294 22.206 Q 0.538 22.055 0.464 21.371 A 1.438 1.438 0 0 1 0.456 21.216 A 1.547 1.547 0 0 1 0.779 20.317 Q 1.463 19.355 3.6 18.36 Q 4.96 17.717 7.234 16.898 A 95.861 95.861 0 0 1 8.712 16.38 Q 12.048 15.24 13.992 14.472 A 37.484 37.484 0 0 0 16.166 12.113 Q 17.209 10.874 18.014 9.665 A 22.97 22.97 0 0 0 18.12 9.504 A 14.938 14.938 0 0 0 18.886 8.203 Q 19.583 6.856 19.686 5.805 A 3.646 3.646 0 0 0 19.704 5.448 A 2.251 2.251 0 0 0 19.403 4.255 Q 18.709 3.115 16.416 3.048 A 4.937 4.937 0 0 1 16.711 4.165 A 4.298 4.298 0 0 1 16.752 4.752 A 5.327 5.327 0 0 1 16.237 7.013 A 6.541 6.541 0 0 1 15.972 7.524 Q 15.192 8.88 14.016 9.804 Q 12.84 10.728 11.508 11.292 A 8.117 8.117 0 0 1 10.463 11.657 Q 9.728 11.856 9.072 11.856 A 3.575 3.575 0 0 1 8.352 11.788 Q 7.74 11.662 7.32 11.304 A 1.785 1.785 0 0 1 6.732 10.299 A 2.737 2.737 0 0 1 6.672 9.708 A 4.122 4.122 0 0 1 6.879 8.443 A 5.593 5.593 0 0 1 7.26 7.548 A 7.56 7.56 0 0 1 8.081 6.315 A 9.975 9.975 0 0 1 8.94 5.388 Q 10.032 4.344 11.832 3.612 A 11.398 11.398 0 0 1 14.85 2.857 A 13.431 13.431 0 0 1 15.768 2.784 A 3.787 3.787 0 0 0 13.75 0.875 Q 13.012 0.55 12.05 0.398 A 12.056 12.056 0 0 0 10.176 0.264 A 8.18 8.18 0 0 0 8.397 0.477 Q 7.555 0.665 6.616 1.02 A 20.087 20.087 0 0 0 4.884 1.776 Q 2.41 2.989 0.901 4.511 A 9.43 9.43 0 0 0 0.216 5.28 Z M 31.368 16.512 L 32.016 15.984 A 0.278 0.278 0 0 1 32.098 15.941 Q 32.228 15.895 32.472 15.912 Q 32.73 15.931 32.79 16.062 A 0.215 0.215 0 0 1 32.808 16.152 A 0.229 0.229 0 0 1 32.741 16.315 A 0.301 0.301 0 0 1 32.736 16.32 Q 29.94 18.837 29.471 19.691 A 0.625 0.625 0 0 0 29.376 19.968 A 0.251 0.251 0 0 0 29.409 20.101 Q 29.489 20.232 29.76 20.232 A 1.413 1.413 0 0 0 30.026 20.204 Q 30.295 20.152 30.652 20.004 A 5.925 5.925 0 0 0 30.792 19.944 Q 31.44 19.656 31.944 19.356 A 44.578 44.578 0 0 0 32.351 19.111 Q 32.532 19 32.733 18.876 A 88.878 88.878 0 0 0 33.156 18.612 A 225.393 225.393 0 0 1 33.323 18.508 Q 33.821 18.196 33.9 18.151 A 0.269 0.269 0 0 1 33.912 18.144 L 33.96 18.504 Q 32.856 19.224 31.44 19.944 A 12.09 12.09 0 0 1 30.775 20.259 Q 30.128 20.54 29.666 20.626 A 2.054 2.054 0 0 1 29.292 20.664 A 1.304 1.304 0 0 1 29.02 20.638 Q 28.621 20.553 28.568 20.184 A 0.842 0.842 0 0 1 28.56 20.064 Q 28.56 19.224 29.856 17.88 Q 26.088 20.328 25.2 20.328 A 0.634 0.634 0 0 1 24.975 20.291 Q 24.696 20.186 24.674 19.778 A 1.346 1.346 0 0 1 24.672 19.704 A 1.765 1.765 0 0 1 24.879 18.941 Q 25.383 17.913 27.109 16.396 A 27.814 27.814 0 0 1 27.792 15.816 Q 27.899 15.731 28.329 15.759 A 4.622 4.622 0 0 1 28.44 15.768 Q 28.687 15.813 28.703 15.868 A 0.028 0.028 0 0 1 28.704 15.876 Q 28.704 15.928 28.613 16.045 A 1.577 1.577 0 0 1 28.584 16.08 Q 28.471 16.216 27.545 17.121 A 201.127 201.127 0 0 1 27.432 17.232 Q 25.452 19.167 25.307 19.763 A 0.365 0.365 0 0 0 25.296 19.848 Q 25.296 19.959 25.42 19.967 A 0.31 0.31 0 0 0 25.44 19.968 Q 26.135 19.968 29.942 17.464 A 135.5 135.5 0 0 0 31.368 16.512 Z M 31.608 4.272 L 31.608 4.248 A 0.357 0.357 0 0 0 31.568 4.075 Q 31.488 3.927 31.245 3.896 A 1.119 1.119 0 0 0 31.104 3.888 A 4.281 4.281 0 0 0 29.921 4.08 Q 28.116 4.606 25.284 6.571 A 40.192 40.192 0 0 0 25.224 6.612 Q 21.312 9.336 17.928 12.888 Q 18.219 12.754 18.594 12.619 A 11.484 11.484 0 0 1 18.648 12.6 A 64.299 64.299 0 0 0 22.836 10.854 Q 25.679 9.542 27.888 8.124 A 24.939 24.939 0 0 0 29.152 7.261 Q 31.098 5.835 31.502 4.792 A 1.44 1.44 0 0 0 31.608 4.272 Z M 6.46 20.374 A 24.868 24.868 0 0 0 7.152 19.956 Q 10.392 17.928 13.488 14.952 Q 12.408 15.384 11.352 15.744 A 171.884 171.884 0 0 0 8.841 16.616 Q 6.232 17.547 4.507 18.279 A 33.368 33.368 0 0 0 3.432 18.756 A 11.624 11.624 0 0 0 2.503 19.237 Q 0.888 20.178 0.888 21.096 Q 0.888 21.823 1.499 21.971 A 1.494 1.494 0 0 0 1.848 22.008 Q 3.687 21.987 6.46 20.374 Z M 9.36 5.52 Q 8.28 6.528 7.656 7.608 A 5.534 5.534 0 0 0 7.282 8.38 Q 7.032 9.027 7.032 9.612 Q 7.032 10.536 7.548 10.992 Q 8.064 11.448 8.928 11.448 A 4.742 4.742 0 0 0 10.224 11.256 Q 10.786 11.096 11.386 10.805 A 9.614 9.614 0 0 0 11.94 10.512 A 8.895 8.895 0 0 0 14.183 8.676 A 10.807 10.807 0 0 0 14.832 7.872 A 6.808 6.808 0 0 0 15.717 6.271 A 5.449 5.449 0 0 0 16.08 4.32 A 3.68 3.68 0 0 0 15.978 3.441 A 3.262 3.262 0 0 0 15.864 3.072 Q 13.896 3.12 12.168 3.816 A 11.031 11.031 0 0 0 10.78 4.485 Q 10.069 4.895 9.515 5.38 A 6.638 6.638 0 0 0 9.36 5.52 Z M 21.986 15.339 A 1.697 1.697 0 0 0 21.672 15.312 Q 20.136 15.312 18.309 17.148 A 13.365 13.365 0 0 0 17.964 17.508 A 7.7 7.7 0 0 0 16.412 19.942 A 7.089 7.089 0 0 0 15.936 22.536 Q 15.936 22.968 15.96 23.16 Q 17.424 22.968 18.996 22.032 Q 20.568 21.096 21.684 19.584 A 6.305 6.305 0 0 0 22.407 18.348 A 4.586 4.586 0 0 0 22.8 16.512 Q 22.8 15.493 21.986 15.339 Z" vector-effect="non-scaling-stroke"/></g></svg>